<?xml version="1.0" encoding="UTF-8" standalone="no"?>
<!DOCTYPE svg PUBLIC "-//W3C//DTD SVG 1.1//EN" "http://www.w3.org/Graphics/SVG/1.1/DTD/svg11.dtd">
<svg width="100%" height="100%" viewBox="0 0 24 24" version="1.1" xmlns="http://www.w3.org/2000/svg" xmlns:xlink="http://www.w3.org/1999/xlink" xml:space="preserve" xmlns:serif="http://www.serif.com/" style="fill-rule:evenodd;clip-rule:evenodd;stroke-linejoin:round;stroke-miterlimit:2;">
    <g transform="matrix(1,0,0,1,3.255,3.255)">
        <path d="M12.5,11L11.71,11L11.43,10.73C12.41,9.59 13,8.11 13,6.5C13,2.91 10.09,0 6.5,0C2.91,0 0,2.91 0,6.5C0,10.09 2.91,13 6.5,13C8.11,13 9.59,12.41 10.73,11.43L11,11.71L11,12.5L16,17.49L17.49,16L12.5,11ZM6.5,11C4.01,11 2,8.99 2,6.5C2,4.01 4.01,2 6.5,2C8.99,2 11,4.01 11,6.5C11,8.99 8.99,11 6.5,11Z" style="fill:white;"/>
    </g>
</svg>
